<mxfile host="Electron" modified="2024-07-24T10:03:02.374Z" agent="Mozilla/5.0 (Windows NT 10.0; Win64; x64) AppleWebKit/537.36 (KHTML, like Gecko) draw.io/24.6.4 Chrome/124.0.6367.207 Electron/30.0.6 Safari/537.36" etag="U6eFItMWM7gNiWPhApSQ" version="24.6.4" type="device">
  <diagram name="Page-1" id="gR_N_6ZjyTQ2Q4nYfgPw">
    <mxGraphModel dx="2690" dy="1010" grid="1" gridSize="11" guides="1" tooltips="1" connect="1" arrows="0" fold="1" page="1" pageScale="1" pageWidth="850" pageHeight="1100" background="#000000" math="0" shadow="0">
      <root>
        <mxCell id="0" />
        <mxCell id="1" parent="0" />
        <mxCell id="J8XLkyMOnC80SXb-u7cb-68" style="edgeStyle=orthogonalEdgeStyle;rounded=0;orthogonalLoop=1;jettySize=auto;html=1;exitX=1;exitY=0.5;exitDx=0;exitDy=0;entryX=0;entryY=0.5;entryDx=0;entryDy=0;fontFamily=Helvetica;fontSize=12;fontColor=default;labelBackgroundColor=none;" edge="1" parent="1" source="J8XLkyMOnC80SXb-u7cb-30" target="J8XLkyMOnC80SXb-u7cb-44">
          <mxGeometry relative="1" as="geometry" />
        </mxCell>
        <mxCell id="J8XLkyMOnC80SXb-u7cb-30" value="" style="whiteSpace=wrap;html=1;aspect=fixed;labelBackgroundColor=none;" vertex="1" parent="1">
          <mxGeometry x="100" y="510" width="480" height="480" as="geometry" />
        </mxCell>
        <mxCell id="J8XLkyMOnC80SXb-u7cb-7" value="" style="group;labelBackgroundColor=none;" vertex="1" connectable="0" parent="1">
          <mxGeometry x="280" y="580" width="120" height="90" as="geometry" />
        </mxCell>
        <mxCell id="J8XLkyMOnC80SXb-u7cb-3" value="User Service" style="rounded=1;whiteSpace=wrap;html=1;movable=1;resizable=1;rotatable=1;deletable=1;editable=1;locked=0;connectable=1;labelBackgroundColor=none;" vertex="1" parent="J8XLkyMOnC80SXb-u7cb-7">
          <mxGeometry width="120" height="60" as="geometry" />
        </mxCell>
        <mxCell id="J8XLkyMOnC80SXb-u7cb-4" value="NestJS" style="text;html=1;align=center;verticalAlign=middle;resizable=1;points=[];autosize=1;strokeColor=none;fillColor=none;movable=1;rotatable=1;deletable=1;editable=1;locked=0;connectable=1;labelBackgroundColor=none;" vertex="1" parent="J8XLkyMOnC80SXb-u7cb-7">
          <mxGeometry x="30" y="60" width="60" height="30" as="geometry" />
        </mxCell>
        <mxCell id="J8XLkyMOnC80SXb-u7cb-14" value="" style="group;labelBackgroundColor=none;" vertex="1" connectable="0" parent="1">
          <mxGeometry x="280" y="680" width="120" height="90" as="geometry" />
        </mxCell>
        <mxCell id="J8XLkyMOnC80SXb-u7cb-8" value="Product Service" style="rounded=1;whiteSpace=wrap;html=1;labelBackgroundColor=none;" vertex="1" parent="J8XLkyMOnC80SXb-u7cb-14">
          <mxGeometry width="120" height="60" as="geometry" />
        </mxCell>
        <mxCell id="J8XLkyMOnC80SXb-u7cb-10" value="Spring" style="text;strokeColor=none;align=center;fillColor=none;html=1;verticalAlign=middle;whiteSpace=wrap;rounded=0;labelBackgroundColor=none;" vertex="1" parent="J8XLkyMOnC80SXb-u7cb-14">
          <mxGeometry x="30" y="60" width="60" height="30" as="geometry" />
        </mxCell>
        <mxCell id="J8XLkyMOnC80SXb-u7cb-15" value="" style="group;labelBackgroundColor=none;" vertex="1" connectable="0" parent="1">
          <mxGeometry x="130" y="790" width="120" height="90" as="geometry" />
        </mxCell>
        <mxCell id="J8XLkyMOnC80SXb-u7cb-12" value="Order Service" style="rounded=1;whiteSpace=wrap;html=1;labelBackgroundColor=none;" vertex="1" parent="J8XLkyMOnC80SXb-u7cb-15">
          <mxGeometry width="120" height="60" as="geometry" />
        </mxCell>
        <mxCell id="J8XLkyMOnC80SXb-u7cb-13" value="Golang" style="text;strokeColor=none;align=center;fillColor=none;html=1;verticalAlign=middle;whiteSpace=wrap;rounded=0;labelBackgroundColor=none;" vertex="1" parent="J8XLkyMOnC80SXb-u7cb-15">
          <mxGeometry x="30" y="60" width="60" height="30" as="geometry" />
        </mxCell>
        <mxCell id="J8XLkyMOnC80SXb-u7cb-18" value="" style="group;labelBackgroundColor=none;" vertex="1" connectable="0" parent="1">
          <mxGeometry x="440" y="580" width="120" height="90" as="geometry" />
        </mxCell>
        <mxCell id="J8XLkyMOnC80SXb-u7cb-16" value="Email Service" style="rounded=1;whiteSpace=wrap;html=1;labelBackgroundColor=none;" vertex="1" parent="J8XLkyMOnC80SXb-u7cb-18">
          <mxGeometry width="120" height="60" as="geometry" />
        </mxCell>
        <mxCell id="J8XLkyMOnC80SXb-u7cb-17" value="Spring" style="text;strokeColor=none;align=center;fillColor=none;html=1;verticalAlign=middle;whiteSpace=wrap;rounded=0;labelBackgroundColor=none;" vertex="1" parent="J8XLkyMOnC80SXb-u7cb-18">
          <mxGeometry x="30" y="60" width="60" height="30" as="geometry" />
        </mxCell>
        <mxCell id="J8XLkyMOnC80SXb-u7cb-29" value="" style="group;labelBackgroundColor=none;" vertex="1" connectable="0" parent="1">
          <mxGeometry x="440" y="680" width="120" height="90" as="geometry" />
        </mxCell>
        <mxCell id="J8XLkyMOnC80SXb-u7cb-27" value="Payment Service" style="rounded=1;whiteSpace=wrap;html=1;movable=1;resizable=1;rotatable=1;deletable=1;editable=1;locked=0;connectable=1;labelBackgroundColor=none;" vertex="1" parent="J8XLkyMOnC80SXb-u7cb-29">
          <mxGeometry width="120" height="60" as="geometry" />
        </mxCell>
        <mxCell id="J8XLkyMOnC80SXb-u7cb-28" value="Golang" style="text;strokeColor=none;align=center;fillColor=none;html=1;verticalAlign=middle;whiteSpace=wrap;rounded=0;movable=1;resizable=1;rotatable=1;deletable=1;editable=1;locked=0;connectable=1;labelBackgroundColor=none;" vertex="1" parent="J8XLkyMOnC80SXb-u7cb-29">
          <mxGeometry x="30" y="60" width="60" height="30" as="geometry" />
        </mxCell>
        <mxCell id="J8XLkyMOnC80SXb-u7cb-34" value="" style="group;labelBackgroundColor=none;" vertex="1" connectable="0" parent="1">
          <mxGeometry x="130" y="580" width="120" height="90" as="geometry" />
        </mxCell>
        <mxCell id="J8XLkyMOnC80SXb-u7cb-32" value="&lt;div&gt;&lt;br&gt;&lt;/div&gt;&lt;div&gt;Chat Service&lt;/div&gt;" style="rounded=1;whiteSpace=wrap;html=1;pointerEvents=0;align=center;verticalAlign=top;fontFamily=Helvetica;fontSize=12;fillColor=none;labelBackgroundColor=none;" vertex="1" parent="J8XLkyMOnC80SXb-u7cb-34">
          <mxGeometry width="120" height="60" as="geometry" />
        </mxCell>
        <mxCell id="J8XLkyMOnC80SXb-u7cb-33" value="NestJS" style="text;strokeColor=none;align=center;fillColor=none;html=1;verticalAlign=middle;whiteSpace=wrap;rounded=0;fontFamily=Helvetica;fontSize=12;labelBackgroundColor=none;" vertex="1" parent="J8XLkyMOnC80SXb-u7cb-34">
          <mxGeometry x="30" y="60" width="60" height="30" as="geometry" />
        </mxCell>
        <mxCell id="J8XLkyMOnC80SXb-u7cb-38" value="" style="group;labelBackgroundColor=none;" vertex="1" connectable="0" parent="1">
          <mxGeometry x="130" y="680" width="120" height="90" as="geometry" />
        </mxCell>
        <mxCell id="J8XLkyMOnC80SXb-u7cb-36" value="&lt;div&gt;&lt;br&gt;&lt;/div&gt;&lt;div&gt;Cart Service&lt;/div&gt;" style="rounded=1;whiteSpace=wrap;html=1;pointerEvents=0;align=center;verticalAlign=top;fontFamily=Helvetica;fontSize=12;fillColor=none;labelBackgroundColor=none;" vertex="1" parent="J8XLkyMOnC80SXb-u7cb-38">
          <mxGeometry width="120" height="60" as="geometry" />
        </mxCell>
        <mxCell id="J8XLkyMOnC80SXb-u7cb-37" value="Spring" style="text;strokeColor=none;align=center;fillColor=none;html=1;verticalAlign=middle;whiteSpace=wrap;rounded=0;fontFamily=Helvetica;fontSize=12;labelBackgroundColor=none;" vertex="1" parent="J8XLkyMOnC80SXb-u7cb-38">
          <mxGeometry x="30" y="60" width="60" height="30" as="geometry" />
        </mxCell>
        <mxCell id="J8XLkyMOnC80SXb-u7cb-40" value="MICROSERVICES" style="text;strokeColor=none;align=center;fillColor=none;html=1;verticalAlign=middle;whiteSpace=wrap;rounded=0;fontFamily=Helvetica;fontSize=18;strokeWidth=1;labelBackgroundColor=none;" vertex="1" parent="1">
          <mxGeometry x="130" y="530" width="140" height="30" as="geometry" />
        </mxCell>
        <mxCell id="J8XLkyMOnC80SXb-u7cb-69" style="edgeStyle=orthogonalEdgeStyle;rounded=0;orthogonalLoop=1;jettySize=auto;html=1;exitX=-0.002;exitY=0.42;exitDx=0;exitDy=0;entryX=1.005;entryY=0.42;entryDx=0;entryDy=0;fontFamily=Helvetica;fontSize=12;fontColor=default;exitPerimeter=0;entryPerimeter=0;labelBackgroundColor=none;" edge="1" parent="1" source="J8XLkyMOnC80SXb-u7cb-44" target="J8XLkyMOnC80SXb-u7cb-30">
          <mxGeometry relative="1" as="geometry" />
        </mxCell>
        <mxCell id="J8XLkyMOnC80SXb-u7cb-44" value="" style="whiteSpace=wrap;html=1;aspect=fixed;labelBackgroundColor=none;" vertex="1" parent="1">
          <mxGeometry x="650" y="510" width="480" height="480" as="geometry" />
        </mxCell>
        <mxCell id="J8XLkyMOnC80SXb-u7cb-45" value="APACHE KAFKA" style="text;strokeColor=none;align=center;fillColor=none;html=1;verticalAlign=middle;whiteSpace=wrap;rounded=0;fontFamily=Helvetica;fontSize=25;labelBackgroundColor=none;" vertex="1" parent="1">
          <mxGeometry x="770" y="530" width="230" height="70" as="geometry" />
        </mxCell>
        <mxCell id="J8XLkyMOnC80SXb-u7cb-64" style="edgeStyle=orthogonalEdgeStyle;rounded=0;orthogonalLoop=1;jettySize=auto;html=1;exitX=0.413;exitY=1.02;exitDx=0;exitDy=0;entryX=0.5;entryY=0;entryDx=0;entryDy=0;fontFamily=Helvetica;fontSize=12;fontColor=default;exitPerimeter=0;labelBackgroundColor=none;" edge="1" parent="1" source="J8XLkyMOnC80SXb-u7cb-48" target="J8XLkyMOnC80SXb-u7cb-30">
          <mxGeometry relative="1" as="geometry" />
        </mxCell>
        <mxCell id="J8XLkyMOnC80SXb-u7cb-65" style="edgeStyle=orthogonalEdgeStyle;rounded=0;orthogonalLoop=1;jettySize=auto;html=1;exitX=0.133;exitY=1.034;exitDx=0;exitDy=0;entryX=0.75;entryY=0;entryDx=0;entryDy=0;fontFamily=Helvetica;fontSize=12;fontColor=default;exitPerimeter=0;labelBackgroundColor=none;" edge="1" parent="1" source="J8XLkyMOnC80SXb-u7cb-48" target="J8XLkyMOnC80SXb-u7cb-58">
          <mxGeometry relative="1" as="geometry" />
        </mxCell>
        <mxCell id="J8XLkyMOnC80SXb-u7cb-48" value="" style="rounded=1;whiteSpace=wrap;html=1;pointerEvents=0;align=center;verticalAlign=top;fontFamily=Helvetica;fontSize=12;fillColor=none;labelBackgroundColor=none;" vertex="1" parent="1">
          <mxGeometry x="-210" y="320" width="1330" height="100" as="geometry" />
        </mxCell>
        <mxCell id="J8XLkyMOnC80SXb-u7cb-49" value="DISCOVERY SERVER" style="text;strokeColor=none;align=center;fillColor=none;html=1;verticalAlign=middle;whiteSpace=wrap;rounded=0;fontFamily=Helvetica;fontSize=25;labelBackgroundColor=none;" vertex="1" parent="1">
          <mxGeometry x="315" y="340" width="330" height="30" as="geometry" />
        </mxCell>
        <mxCell id="J8XLkyMOnC80SXb-u7cb-50" value="Spring" style="text;strokeColor=none;align=center;fillColor=none;html=1;verticalAlign=middle;whiteSpace=wrap;rounded=0;fontFamily=Helvetica;fontSize=20;labelBackgroundColor=none;" vertex="1" parent="1">
          <mxGeometry x="445" y="380" width="70" height="30" as="geometry" />
        </mxCell>
        <mxCell id="J8XLkyMOnC80SXb-u7cb-52" value="Health Check" style="text;strokeColor=none;align=center;fillColor=none;html=1;verticalAlign=middle;whiteSpace=wrap;rounded=0;fontFamily=Helvetica;fontSize=16;labelBackgroundColor=none;" vertex="1" parent="1">
          <mxGeometry x="350" y="450" width="60" height="30" as="geometry" />
        </mxCell>
        <mxCell id="J8XLkyMOnC80SXb-u7cb-56" value="Register Service" style="text;strokeColor=none;align=center;fillColor=none;html=1;verticalAlign=middle;whiteSpace=wrap;rounded=0;fontFamily=Helvetica;fontSize=16;labelBackgroundColor=none;" vertex="1" parent="1">
          <mxGeometry x="210" y="450" width="60" height="30" as="geometry" />
        </mxCell>
        <mxCell id="J8XLkyMOnC80SXb-u7cb-93" style="edgeStyle=orthogonalEdgeStyle;rounded=0;orthogonalLoop=1;jettySize=auto;html=1;exitX=-0.019;exitY=0.573;exitDx=0;exitDy=0;entryX=1.001;entryY=0.565;entryDx=0;entryDy=0;fontFamily=Helvetica;fontSize=12;fontColor=default;exitPerimeter=0;entryPerimeter=0;labelBackgroundColor=none;" edge="1" parent="1" source="J8XLkyMOnC80SXb-u7cb-58" target="J8XLkyMOnC80SXb-u7cb-82">
          <mxGeometry relative="1" as="geometry" />
        </mxCell>
        <mxCell id="J8XLkyMOnC80SXb-u7cb-58" value="" style="rounded=1;whiteSpace=wrap;html=1;pointerEvents=0;align=center;verticalAlign=top;fontFamily=Helvetica;fontSize=12;fillColor=none;labelBackgroundColor=none;" vertex="1" parent="1">
          <mxGeometry x="-190" y="510" width="210" height="470" as="geometry" />
        </mxCell>
        <mxCell id="J8XLkyMOnC80SXb-u7cb-59" value="API GATEWAY" style="text;strokeColor=none;align=center;fillColor=none;html=1;verticalAlign=middle;whiteSpace=wrap;rounded=0;fontFamily=Helvetica;fontSize=25;rotation=-90;labelBackgroundColor=none;" vertex="1" parent="1">
          <mxGeometry x="-250" y="710" width="190" height="30" as="geometry" />
        </mxCell>
        <mxCell id="J8XLkyMOnC80SXb-u7cb-62" style="edgeStyle=orthogonalEdgeStyle;rounded=0;orthogonalLoop=1;jettySize=auto;html=1;exitX=0.379;exitY=-0.006;exitDx=0;exitDy=0;entryX=0.37;entryY=1.031;entryDx=0;entryDy=0;entryPerimeter=0;fontFamily=Helvetica;fontSize=12;fontColor=default;exitPerimeter=0;labelBackgroundColor=none;" edge="1" parent="1" source="J8XLkyMOnC80SXb-u7cb-30" target="J8XLkyMOnC80SXb-u7cb-48">
          <mxGeometry relative="1" as="geometry" />
        </mxCell>
        <mxCell id="J8XLkyMOnC80SXb-u7cb-66" value="Discorver Service" style="text;strokeColor=none;align=center;fillColor=none;html=1;verticalAlign=middle;whiteSpace=wrap;rounded=0;fontFamily=Helvetica;fontSize=16;labelBackgroundColor=none;" vertex="1" parent="1">
          <mxGeometry x="-20" y="450" width="60" height="30" as="geometry" />
        </mxCell>
        <mxCell id="J8XLkyMOnC80SXb-u7cb-67" style="edgeStyle=orthogonalEdgeStyle;rounded=0;orthogonalLoop=1;jettySize=auto;html=1;exitX=0.437;exitY=-0.002;exitDx=0;exitDy=0;entryX=0.084;entryY=1.007;entryDx=0;entryDy=0;entryPerimeter=0;fontFamily=Helvetica;fontSize=12;fontColor=default;exitPerimeter=0;labelBackgroundColor=none;" edge="1" parent="1" source="J8XLkyMOnC80SXb-u7cb-58" target="J8XLkyMOnC80SXb-u7cb-48">
          <mxGeometry relative="1" as="geometry" />
        </mxCell>
        <mxCell id="J8XLkyMOnC80SXb-u7cb-70" value="" style="shape=cylinder3;whiteSpace=wrap;html=1;boundedLbl=1;backgroundOutline=1;size=15;pointerEvents=0;align=center;verticalAlign=top;fontFamily=Helvetica;fontSize=12;fillColor=none;labelBackgroundColor=none;" vertex="1" parent="1">
          <mxGeometry x="300" y="820" width="60" height="80" as="geometry" />
        </mxCell>
        <mxCell id="J8XLkyMOnC80SXb-u7cb-71" value="" style="shape=cylinder3;whiteSpace=wrap;html=1;boundedLbl=1;backgroundOutline=1;size=15;pointerEvents=0;align=center;verticalAlign=top;fontFamily=Helvetica;fontSize=12;fillColor=none;labelBackgroundColor=none;" vertex="1" parent="1">
          <mxGeometry x="400" y="820" width="60" height="80" as="geometry" />
        </mxCell>
        <mxCell id="J8XLkyMOnC80SXb-u7cb-72" value="" style="shape=cylinder3;whiteSpace=wrap;html=1;boundedLbl=1;backgroundOutline=1;size=15;pointerEvents=0;align=center;verticalAlign=top;fontFamily=Helvetica;fontSize=12;fillColor=none;labelBackgroundColor=none;" vertex="1" parent="1">
          <mxGeometry x="490" y="820" width="60" height="80" as="geometry" />
        </mxCell>
        <mxCell id="J8XLkyMOnC80SXb-u7cb-73" value="PostgreSQL" style="text;strokeColor=none;align=center;fillColor=none;html=1;verticalAlign=middle;whiteSpace=wrap;rounded=0;fontFamily=Helvetica;fontSize=12;labelBackgroundColor=none;" vertex="1" parent="1">
          <mxGeometry x="300" y="910" width="60" height="30" as="geometry" />
        </mxCell>
        <mxCell id="J8XLkyMOnC80SXb-u7cb-74" value="MongoDB" style="text;strokeColor=none;align=center;fillColor=none;html=1;verticalAlign=middle;whiteSpace=wrap;rounded=0;fontFamily=Helvetica;fontSize=12;labelBackgroundColor=none;" vertex="1" parent="1">
          <mxGeometry x="400" y="910" width="60" height="30" as="geometry" />
        </mxCell>
        <mxCell id="J8XLkyMOnC80SXb-u7cb-75" value="Redis" style="text;strokeColor=none;align=center;fillColor=none;html=1;verticalAlign=middle;whiteSpace=wrap;rounded=0;fontFamily=Helvetica;fontSize=12;labelBackgroundColor=none;" vertex="1" parent="1">
          <mxGeometry x="490" y="910" width="60" height="30" as="geometry" />
        </mxCell>
        <mxCell id="J8XLkyMOnC80SXb-u7cb-77" value="Producer" style="text;strokeColor=none;align=center;fillColor=none;html=1;verticalAlign=middle;whiteSpace=wrap;rounded=0;fontFamily=Helvetica;fontSize=20;labelBackgroundColor=none;" vertex="1" parent="1">
          <mxGeometry x="855" y="680" width="60" height="30" as="geometry" />
        </mxCell>
        <mxCell id="J8XLkyMOnC80SXb-u7cb-78" value="Consumer" style="text;strokeColor=none;align=center;fillColor=none;html=1;verticalAlign=middle;whiteSpace=wrap;rounded=0;fontFamily=Helvetica;fontSize=20;labelBackgroundColor=none;" vertex="1" parent="1">
          <mxGeometry x="855" y="730" width="60" height="30" as="geometry" />
        </mxCell>
        <mxCell id="J8XLkyMOnC80SXb-u7cb-79" value="Topics" style="text;strokeColor=none;align=center;fillColor=none;html=1;verticalAlign=middle;whiteSpace=wrap;rounded=0;fontFamily=Helvetica;fontSize=20;labelBackgroundColor=none;" vertex="1" parent="1">
          <mxGeometry x="855" y="630" width="60" height="30" as="geometry" />
        </mxCell>
        <mxCell id="J8XLkyMOnC80SXb-u7cb-82" value="" style="whiteSpace=wrap;html=1;aspect=fixed;labelBackgroundColor=none;" vertex="1" parent="1">
          <mxGeometry x="-800" y="520" width="460" height="460" as="geometry" />
        </mxCell>
        <mxCell id="J8XLkyMOnC80SXb-u7cb-83" value="WEB APPLICATION" style="text;strokeColor=none;align=center;fillColor=none;html=1;verticalAlign=middle;whiteSpace=wrap;rounded=0;fontFamily=Helvetica;fontSize=30;labelBackgroundColor=none;" vertex="1" parent="1">
          <mxGeometry x="-740" y="560" width="340" height="30" as="geometry" />
        </mxCell>
        <mxCell id="J8XLkyMOnC80SXb-u7cb-87" style="edgeStyle=orthogonalEdgeStyle;rounded=0;orthogonalLoop=1;jettySize=auto;html=1;exitX=0;exitY=0.5;exitDx=0;exitDy=0;entryX=0.996;entryY=0.51;entryDx=0;entryDy=0;entryPerimeter=0;fontFamily=Helvetica;fontSize=12;fontColor=default;labelBackgroundColor=none;" edge="1" parent="1" source="J8XLkyMOnC80SXb-u7cb-30" target="J8XLkyMOnC80SXb-u7cb-58">
          <mxGeometry relative="1" as="geometry" />
        </mxCell>
        <mxCell id="J8XLkyMOnC80SXb-u7cb-88" value="Request" style="text;strokeColor=none;align=center;fillColor=none;html=1;verticalAlign=middle;whiteSpace=wrap;rounded=0;fontFamily=Helvetica;fontSize=16;rotation=-90;labelBackgroundColor=none;" vertex="1" parent="1">
          <mxGeometry x="30" y="690" width="60" height="30" as="geometry" />
        </mxCell>
        <mxCell id="J8XLkyMOnC80SXb-u7cb-89" value="NextJS" style="text;strokeColor=none;align=center;fillColor=none;html=1;verticalAlign=middle;whiteSpace=wrap;rounded=0;fontFamily=Helvetica;fontSize=25;labelBackgroundColor=none;" vertex="1" parent="1">
          <mxGeometry x="-600" y="660" width="60" height="30" as="geometry" />
        </mxCell>
        <mxCell id="J8XLkyMOnC80SXb-u7cb-92" value="Request" style="text;strokeColor=none;align=center;fillColor=none;html=1;verticalAlign=middle;whiteSpace=wrap;rounded=0;fontFamily=Helvetica;fontSize=12;rotation=-90;labelBackgroundColor=none;" vertex="1" parent="1">
          <mxGeometry x="-290" y="700" width="60" height="30" as="geometry" />
        </mxCell>
        <mxCell id="J8XLkyMOnC80SXb-u7cb-94" style="edgeStyle=orthogonalEdgeStyle;rounded=0;orthogonalLoop=1;jettySize=auto;html=1;exitX=1;exitY=0.5;exitDx=0;exitDy=0;entryX=-0.01;entryY=0.51;entryDx=0;entryDy=0;entryPerimeter=0;fontFamily=Helvetica;fontSize=12;fontColor=default;labelBackgroundColor=none;" edge="1" parent="1" source="J8XLkyMOnC80SXb-u7cb-82" target="J8XLkyMOnC80SXb-u7cb-58">
          <mxGeometry relative="1" as="geometry" />
        </mxCell>
        <mxCell id="J8XLkyMOnC80SXb-u7cb-95" value="Response" style="text;strokeColor=none;align=center;fillColor=none;html=1;verticalAlign=middle;whiteSpace=wrap;rounded=0;fontFamily=Helvetica;fontSize=12;rotation=-90;labelBackgroundColor=none;" vertex="1" parent="1">
          <mxGeometry x="-290" y="810" width="60" height="30" as="geometry" />
        </mxCell>
        <mxCell id="J8XLkyMOnC80SXb-u7cb-85" style="edgeStyle=orthogonalEdgeStyle;rounded=0;orthogonalLoop=1;jettySize=auto;html=1;fontFamily=Helvetica;fontSize=12;fontColor=default;labelBackgroundColor=none;" edge="1" parent="1">
          <mxGeometry relative="1" as="geometry">
            <mxPoint x="19" y="792" as="sourcePoint" />
            <mxPoint x="101" y="792" as="targetPoint" />
            <Array as="points">
              <mxPoint x="19" y="792" />
              <mxPoint x="101" y="792" />
            </Array>
          </mxGeometry>
        </mxCell>
        <mxCell id="J8XLkyMOnC80SXb-u7cb-86" value="Response" style="text;strokeColor=none;align=center;fillColor=none;html=1;verticalAlign=middle;whiteSpace=wrap;rounded=0;fontFamily=Helvetica;fontSize=16;rotation=-90;labelBackgroundColor=none;" vertex="1" parent="1">
          <mxGeometry x="30" y="820" width="60" height="30" as="geometry" />
        </mxCell>
      </root>
    </mxGraphModel>
  </diagram>
</mxfile>
